<svg xmlns="http://www.w3.org/2000/svg" width="512" height="512"><path d="M481.594 208.313L398.312 40.875C395.625 35.438 390.062 32 384 32h-48c0-8.844-7.156-16-16-16H192c-8.844 0-16 7.156-16 16h-48c-6.063 0-11.594 3.438-14.313 8.844L29.891 208.438C13.25 209.563 0 223.063 0 240c0 17.688 14.328 32 32 32v192c0 17.688 14.328 32 32 32h384c17.688 0 32-14.312 32-32V272c17.688 0 32-14.312 32-32 0-17.125-13.5-30.812-30.406-31.687zM137.891 64H176c0 8.844 7.156 16 16 16h128c8.844 0 16-7.156 16-16h38.094l71.625 144H65.891l72-144zM112 448c0 8.844-7.156 16-16 16s-16-7.156-16-16V288c0-8.844 7.156-16 16-16s16 7.156 16 16v160zm64 0c0 8.844-7.156 16-16 16s-16-7.156-16-16V288c0-8.844 7.156-16 16-16s16 7.156 16 16v160zm64 0c0 8.844-7.156 16-16 16s-16-7.156-16-16V288c0-8.844 7.156-16 16-16s16 7.156 16 16v160zm64 0c0 8.844-7.156 16-16 16s-16-7.156-16-16V288c0-8.844 7.156-16 16-16s16 7.156 16 16v160zm64 0c0 8.844-7.156 16-16 16s-16-7.156-16-16V288c0-8.844 7.156-16 16-16s16 7.156 16 16v160zm64 0c0 8.844-7.156 16-16 16s-16-7.156-16-16V288c0-8.844 7.156-16 16-16s16 7.156 16 16v160z"/></svg>