<svg height="644" viewBox="0 -29 483.199 483" width="644" xmlns="http://www.w3.org/2000/svg"><path d="M482.121 302.898A32.01 32.01 0 0 0 456 279.715V96.102h16a8 8 0 0 0 8-8v-80c0-4.422-3.582-8-8-8H120c-4.418 0-8 3.578-8 8v80a8 8 0 0 0 8 8h16v160h-8a103.022 103.022 0 0 0-56 16.39v-40.39c0-4.422-3.582-8-8-8H8c-4.418 0-8 3.578-8 8v184a8 8 0 0 0 8 8h56a8 8 0 0 0 8-8v-40.387a103.127 103.127 0 0 0 56 16.387h131.36c9.1-.016 18.16-1.211 26.952-3.555l173.208-46.399c17.043-4.644 27.14-22.175 22.601-39.25zM128 16.102h336v64H128zm24 80h288V281.09l-92.848 24.898a32.159 32.159 0 0 0-21.16-18.578L218.2 258.5a72.71 72.71 0 0 0-18.597-2.398H152zm-96 312H16v-168h40zm399.367-81.41L282.191 373.09a89.043 89.043 0 0 1-22.832 3.012H128A87.398 87.398 0 0 1 75.2 358.5l-3.2-2.398v-64l3.2-2.403a87.344 87.344 0 0 1 52.8-17.597h71.602a56.542 56.542 0 0 1 14.488 1.878l107.758 28.887a16.134 16.134 0 0 1 11.754 13.778c.086.328.191.652.32.968a7.885 7.885 0 0 0-.211 1.047c.008 1.3-.168 2.598-.527 3.848a16 16 0 0 1-15.422 11.832 15.779 15.779 0 0 1-4.168-.527l-68-18.235a8.007 8.007 0 0 0-7.887 1.961 7.998 7.998 0 1 0 3.742 13.488l68 18.243a32.536 32.536 0 0 0 8.328 1.07c14.383-.008 26.989-9.63 30.79-23.504a28.78 28.78 0 0 0 .906-4.902L447 295.78c.695-.176 1.45-.355 2.16-.472 7.965-1.028 15.453 4.007 17.512 11.765.36 1.352.539 2.746.527 4.145a15.997 15.997 0 0 1-11.832 15.472zm0 0"/><path d="M256 128.102h80a8 8 0 0 0 0-16h-80a8 8 0 0 0 0 16zm0 0"/></svg>