<svg xmlns="http://www.w3.org/2000/svg" viewBox="0 0 512 512"><path d="M235.268 138.472c-23.441 0-42.511 19.071-42.511 42.513v30.008c0 23.44 19.071 42.511 42.511 42.511 23.441 0 42.512-19.07 42.512-42.511v-30.008c0-23.442-19.071-42.513-42.512-42.513zm0 100.028c-14.336 0-26.139-11.026-27.391-25.039 7.404 6.255 16.962 10.036 27.391 10.036s19.987-3.781 27.392-10.037c-1.252 14.014-13.055 25.04-27.392 25.04zm0-30.008c-15.168 0-27.507-12.34-27.507-27.507 0-15.169 12.34-27.509 27.507-27.509 15.168 0 27.508 12.34 27.508 27.509 0 15.167-12.34 27.507-27.508 27.507z"/><path d="M235.268 163.481a7.502 7.502 0 0 0-7.502 7.502v20.005a7.502 7.502 0 0 0 15.004 0v-20.005a7.501 7.501 0 0 0-7.502-7.502zM370.304 48.449c-37.231 0-67.519 30.288-67.519 67.517v29.988l-.001.02c0 37.229 30.289 67.517 67.518 67.517 37.188 0 67.447-30.223 67.513-67.396 0-.04.006-.079.006-.119v-30.01c0-37.229-30.288-67.517-67.517-67.517zm-.002 150.039c-23.773 0-43.895-15.884-50.342-37.592 12.374 13.851 30.354 22.59 50.344 22.59 19.986 0 37.964-8.736 50.336-22.583-6.448 21.704-26.568 37.585-50.338 37.585zm.002-30.006c-28.957 0-52.515-23.559-52.515-52.515s23.559-52.513 52.515-52.513 52.513 23.558 52.513 52.513c0 28.956-23.557 52.515-52.513 52.515z"/><path d="M370.308 88.459a7.501 7.501 0 0 0-7.503 7.5l-.008 40.015a7.504 7.504 0 0 0 7.501 7.503h.001a7.502 7.502 0 0 0 7.502-7.5l.008-40.015a7.502 7.502 0 0 0-7.501-7.503zM507.68 302.31c-10.294-17.823-33.128-24.008-51.007-13.861-3.25 1.602-44.752 21.998-78.956 36.391a7.503 7.503 0 0 0 5.82 13.83c35.859-15.09 79.548-36.652 79.985-36.868.143-.071.284-.146.422-.225 10.749-6.197 24.541-2.504 30.745 8.24 7.184 12.425-4.034 26.067-9.525 31.639-37.245 30.045-140.311 107.091-174.953 107.091-38.398 0-146.149-22.827-172.5-28.537V297.471c52.248-7.677 79.928 1.952 137.933 22.166 17.646 6.149 37.637 13.114 61.935 20.883 3.622 1.578 13.671 7.234 9.841 20.019-2.328 7.772-9.833 15.193-20.824 13.136-14.769-2.772-101.685-14.561-105.378-15.061-4.104-.56-7.885 2.321-8.441 6.427a7.502 7.502 0 0 0 6.427 8.441c.9.122 90.228 12.237 104.626 14.94 2.235.419 4.404.617 6.501.617 15.927 0 27.64-11.431 31.464-24.194 4.023-13.431-.158-30.433-18.535-38.213a1.93 1.93 0 0 0-.08-.035l-.069-.031c-.101-.042-.204-.072-.306-.11-.104-.038-.203-.082-.31-.116-24.271-7.753-44.268-14.722-61.912-20.87-57.846-20.157-88.331-30.762-142.871-23.149v-6.272a7.502 7.502 0 0 0-7.502-7.502h-22.5v-7.498a7.502 7.502 0 0 0-7.502-7.502H7.502A7.502 7.502 0 0 0 0 261.049V426.04a7.502 7.502 0 0 0 7.502 7.502 7.502 7.502 0 0 0 7.502-7.502V268.55h77.702v179.997H77.711v-7.498c0-4.144-3.359-7.502-7.502-7.502s-7.502 3.358-7.502 7.502v7.498H7.502c-4.143 0-7.502 3.358-7.502 7.502s3.359 7.502 7.502 7.502h92.706a7.502 7.502 0 0 0 7.502-7.502v-7.879h22.499a7.502 7.502 0 0 0 7.502-7.502v-5.301c31.388 6.782 133.544 28.184 172.5 28.184 20.502 0 56.856-18.267 111.137-55.841 39.147-27.099 73.223-54.566 73.562-54.84.208-.168.406-.347.594-.535 16.299-16.319 20.85-35.021 12.176-50.025zM122.706 425.925v7.243H107.71V283.55h14.997v142.375z"/></svg>