<svg height="464pt" viewBox="0 -23 464.868 464" width="464pt" xmlns="http://www.w3.org/2000/svg"><path d="M461.422 113.453C447.707 45.484 398.64 1.563 336.414 1.563c-33.059 0-68.91 12.906-103.953 37.37-35.527-25.55-70.711-38.5-104.633-38.5-62.57 0-111.422 44.395-124.45 113.087-19.16 99.84 41.684 232.402 220.794 303.46.121.051.242.094.367.137a21.537 21.537 0 0 0 15.734 0c.137-.047.278-.101.415-.152 82.23-33.317 146-82.13 184.41-141.164 33.691-51.785 46.597-109.422 36.332-162.301zm-48.059 154.715c-36.808 56.566-98.258 103.5-177.715 135.73a7.792 7.792 0 0 1-6.507-.007C57.617 335.76-.937 210.3 17.129 116.14c5.816-30.676 19.316-56.41 39.039-74.426 19.535-17.848 44.316-27.281 71.66-27.281 32.152 0 65.93 13.035 100.39 38.746a7.004 7.004 0 0 0 8.302.054c33.949-24.644 68.496-37.672 99.894-37.672 27.277 0 52.09 9.395 71.762 27.168 19.75 17.84 33.414 43.247 39.515 73.465 9.559 49.282-2.632 103.254-34.328 151.973zm0 0"/><path d="M97.535 64.063c-20.347 15.812-35.469 38.48-43.722 65.558a6.99 6.99 0 0 0 1.55 6.856 7.003 7.003 0 0 0 11.84-2.77c7.406-24.3 20.867-44.562 38.922-58.59a7 7 0 0 0 1.23-9.82 6.997 6.997 0 0 0-9.82-1.234zM336.086 187.52h-11.672v-14.301c0-47.336-40.742-86.114-90.5-86.438-49.734 0-90.5 38.778-90.5 86.438v14.3h-14.668a7.536 7.536 0 0 0-7.332 7.282v73.441a7.53 7.53 0 0 0 7.332 7.278h44.23a7.624 7.624 0 0 0 7.438-7.278v-73.441a7.628 7.628 0 0 0-7.437-7.281h-15.563v-14.301c0-39.942 34.488-72.438 76.457-72.438 42.04.274 76.543 32.77 76.543 72.438v14.3h-15.422c-3.863 0-6.578 3.415-6.578 7.282v73.441c0 3.867 2.715 7.278 6.578 7.278h11.422v15.722c.02 6.125-4.871 11.14-11 11.278h-23.926c-3.32-11.668-14.984-18.887-26.91-16.653-11.926 2.23-20.187 13.18-19.062 25.262s11.265 21.316 23.398 21.308a23.851 23.851 0 0 0 22.277-15.917h24.223c13.856-.145 25.012-11.422 25-25.278V275.52h15.672a7.524 7.524 0 0 0 7.328-7.278v-73.441a7.53 7.53 0 0 0-7.328-7.281zm-169.672 74h-31v-60h31zm82.5 56.746c-5.246 0-9.5-4.254-9.5-9.5 0-5.25 4.254-9.5 9.5-9.5 5.25 0 9.5 4.25 9.5 9.5-.004 5.242-4.254 9.492-9.5 9.5zm80.5-56.746h-27v-60h27zm0 0"/></svg>