<svg data-name="Layer 1" xmlns="http://www.w3.org/2000/svg" viewBox="0 0 50 50"><path d="M25 44.62l-.94-1.37c-.58-.83-14-20.33-14-28.25a15 15 0 1 1 30 0c0 7.92-13.47 27.42-14 28.25zm0-42.31A12.71 12.71 0 0 0 12.35 15c0 5.53 8.43 19.2 12.69 25.54 4.27-6.34 12.7-20 12.7-25.54A12.71 12.71 0 0 0 25 2.31z"/><path d="M25.09 20.22a6.48 6.48 0 1 1 6.47-6.48 6.49 6.49 0 0 1-6.47 6.48zm0-10.64a4.17 4.17 0 1 0 4.16 4.16 4.17 4.17 0 0 0-4.16-4.16zM25 50c-8.2 0-23.78-1.41-23.78-6.64 0-3.53 7-5.19 12.94-6 .9-.11 1.84-.22 2.78-.3a1.15 1.15 0 0 1 .21 2.3c-.91.08-1.82.18-2.69.29-8.18 1.06-10.93 3-10.93 3.67 0 1.46 7.59 4.31 21.51 4.31 9.29 0 17.83-1.43 20.77-3.47.55-.38.75-.69.75-.84 0-.7-2.75-2.61-10.93-3.67-.87-.11-1.78-.21-2.69-.29a1.15 1.15 0 0 1 .21-2.3c.94.08 1.87.19 2.78.3 5.9.77 12.94 2.43 12.94 6a3.4 3.4 0 0 1-1.75 2.74C43.73 48.46 35.07 50 25 50z"/></svg>